<svg xmlns="http://www.w3.org/2000/svg" xmlns:xlink="http://www.w3.org/1999/xlink" width="83" zoomAndPan="magnify" viewBox="0 0 62.25 62.999997" height="84" preserveAspectRatio="xMidYMid meet" version="1.0"><defs><g/><clipPath id="692dc17611"><rect x="0" width="20" y="0" height="33"/></clipPath><clipPath id="a8383e9195"><rect x="0" width="17" y="0" height="32"/></clipPath></defs><g transform="matrix(1, 0, 0, 1, 19, 10)"><g clip-path="url(#692dc17611)"><g fill="#75543f" fill-opacity="1"><g transform="translate(0.492319, 26.826922)"><g><path d="M 17.984375 -2.890625 C 17.429688 -2.003906 16.582031 -1.238281 15.4375 -0.59375 C 14.300781 0.0390625 12.878906 0.359375 11.171875 0.359375 C 9.796875 0.359375 8.503906 0.128906 7.296875 -0.328125 C 6.085938 -0.785156 5.023438 -1.4375 4.109375 -2.28125 C 3.191406 -3.125 2.472656 -4.125 1.953125 -5.28125 C 1.429688 -6.445312 1.171875 -7.734375 1.171875 -9.140625 C 1.171875 -10.648438 1.46875 -11.992188 2.0625 -13.171875 C 2.65625 -14.347656 3.453125 -15.335938 4.453125 -16.140625 C 5.453125 -16.953125 6.582031 -17.570312 7.84375 -18 C 9.101562 -18.425781 10.40625 -18.640625 11.75 -18.640625 C 13.40625 -18.640625 14.773438 -18.363281 15.859375 -17.8125 C 16.953125 -17.269531 17.789062 -16.632812 18.375 -15.90625 L 15.0625 -11.3125 L 14.984375 -11.328125 C 15.335938 -12.203125 15.488281 -13.035156 15.4375 -13.828125 C 15.394531 -14.628906 15.171875 -15.351562 14.765625 -16 C 14.359375 -16.644531 13.785156 -17.15625 13.046875 -17.53125 C 12.316406 -17.90625 11.457031 -18.09375 10.46875 -18.09375 C 9.300781 -18.09375 8.234375 -17.804688 7.265625 -17.234375 C 6.304688 -16.671875 5.535156 -15.84375 4.953125 -14.75 C 4.378906 -13.65625 4.09375 -12.289062 4.09375 -10.65625 C 4.09375 -9.289062 4.3125 -8.015625 4.75 -6.828125 C 5.1875 -5.648438 5.785156 -4.609375 6.546875 -3.703125 C 7.316406 -2.796875 8.207031 -2.085938 9.21875 -1.578125 C 10.226562 -1.078125 11.304688 -0.828125 12.453125 -0.828125 C 13.117188 -0.828125 13.789062 -0.914062 14.46875 -1.09375 C 15.144531 -1.269531 15.78125 -1.519531 16.375 -1.84375 C 16.96875 -2.175781 17.445312 -2.570312 17.8125 -3.03125 Z M 17.984375 -2.890625 "/></g></g></g></g></g><g transform="matrix(1, 0, 0, 1, 26, 20)"><g clip-path="url(#a8383e9195)"><g fill="#a4512a" fill-opacity="1"><g transform="translate(0.240247, 25.887519)"><g><path d="M 9.40625 -9.96875 C 10.25 -9.96875 11.054688 -9.84375 11.828125 -9.59375 C 12.609375 -9.34375 13.242188 -8.921875 13.734375 -8.328125 C 14.234375 -7.734375 14.484375 -6.914062 14.484375 -5.875 C 14.484375 -4.894531 14.269531 -4.019531 13.84375 -3.25 C 13.425781 -2.488281 12.847656 -1.835938 12.109375 -1.296875 C 11.378906 -0.765625 10.554688 -0.351562 9.640625 -0.0625 C 8.734375 0.21875 7.789062 0.359375 6.8125 0.359375 C 5.507812 0.359375 4.335938 0.128906 3.296875 -0.328125 C 2.265625 -0.785156 1.492188 -1.328125 0.984375 -1.953125 L 1.15625 -2.109375 C 1.65625 -1.578125 2.359375 -1.144531 3.265625 -0.8125 C 4.171875 -0.476562 5.078125 -0.3125 5.984375 -0.3125 C 7.179688 -0.3125 8.207031 -0.582031 9.0625 -1.125 C 9.914062 -1.675781 10.566406 -2.398438 11.015625 -3.296875 C 11.472656 -4.191406 11.703125 -5.171875 11.703125 -6.234375 C 11.703125 -7.140625 11.539062 -7.832031 11.21875 -8.3125 C 10.90625 -8.789062 10.5 -9.117188 10 -9.296875 C 9.5 -9.472656 8.945312 -9.539062 8.34375 -9.5 C 7.738281 -9.46875 7.140625 -9.375 6.546875 -9.21875 L 5.75 -8.984375 L 5.375 -9.375 C 6.332031 -9.550781 7.195312 -9.847656 7.96875 -10.265625 C 8.75 -10.679688 9.367188 -11.21875 9.828125 -11.875 C 10.285156 -12.539062 10.515625 -13.304688 10.515625 -14.171875 C 10.515625 -14.710938 10.398438 -15.273438 10.171875 -15.859375 C 9.953125 -16.441406 9.566406 -16.941406 9.015625 -17.359375 C 8.472656 -17.773438 7.695312 -17.984375 6.6875 -17.984375 C 5.78125 -17.984375 5.066406 -17.800781 4.546875 -17.4375 C 4.035156 -17.070312 3.671875 -16.585938 3.453125 -15.984375 C 3.242188 -15.390625 3.144531 -14.722656 3.15625 -13.984375 C 3.175781 -13.242188 3.265625 -12.507812 3.421875 -11.78125 L 3.34375 -11.78125 L 0.90625 -15.6875 C 1.363281 -16.101562 1.976562 -16.535156 2.75 -16.984375 C 3.53125 -17.441406 4.421875 -17.832031 5.421875 -18.15625 C 6.429688 -18.476562 7.492188 -18.640625 8.609375 -18.640625 C 9.554688 -18.640625 10.328125 -18.519531 10.921875 -18.28125 C 11.523438 -18.050781 11.992188 -17.75 12.328125 -17.375 C 12.671875 -17 12.90625 -16.601562 13.03125 -16.1875 C 13.164062 -15.769531 13.234375 -15.367188 13.234375 -14.984375 C 13.234375 -14.203125 13.015625 -13.492188 12.578125 -12.859375 C 12.148438 -12.222656 11.578125 -11.664062 10.859375 -11.1875 C 10.148438 -10.707031 9.375 -10.296875 8.53125 -9.953125 C 8.675781 -9.953125 8.816406 -9.953125 8.953125 -9.953125 C 9.097656 -9.960938 9.25 -9.96875 9.40625 -9.96875 Z M 9.40625 -9.96875 "/></g></g></g></g></g></svg>